<?xml version="1.0" encoding="UTF-8"?>
<svg width="152px" height="52px" viewBox="0 0 112 22" fill="none" xmlns="http://www.w3.org/2000/svg">
<path  d="M18.5588 11.6055C15.7102 11.6055 13.4008 13.9148 13.4008 16.7637C13.4008 19.6124 15.7102 21.9217 18.5588 21.9217C21.4075 21.9217 23.7168 19.6124 23.7168 16.7637C23.7168 13.9148 21.4075 11.6055 18.5588 11.6055ZM5.15798 11.606C2.30933 11.606 0 13.9148 0 16.7637C0 19.6124 2.30933 21.9217 5.15798 21.9217C8.00675 21.9217 10.3162 19.6124 10.3162 16.7637C10.3162 13.9148 8.00675 11.606 5.15798 11.606ZM17.0163 5.15787C17.0163 8.00676 14.7071 10.3163 11.8584 10.3163C9.00965 10.3163 6.70044 8.00676 6.70044 5.15787C6.70044 2.30956 9.00965 0 11.8584 0C14.7071 0 17.0163 2.30956 17.0163 5.15787Z" fill="#F06A6A"></path></svg>